<svg width="35" height="32" viewBox="0 0 35 32" fill="none" xmlns="http://www.w3.org/2000/svg">
<path d="M9.61661 18.2857C11.4058 18.2857 12.8222 18.9273 13.8658 20.2105C14.984 21.4135 15.5431 23.0175 15.5431 25.0226C15.5431 27.188 14.8722 28.9123 13.5304 30.1955C12.263 31.3985 10.5112 32 8.27476 32C5.6656 32 3.61555 30.9173 2.1246 28.7519C0.7082 26.5865 0 23.4987 0 19.4887C0 15.8797 0.745474 12.5514 2.23642 9.50376C3.72737 6.37594 5.96379 3.24812 8.94569 0.120299C9.02024 0.0400997 9.13206 0 9.28115 0C9.50479 0 9.69116 0.120299 9.84026 0.360898C9.98935 0.601501 9.98935 0.802002 9.84026 0.962401C6.18743 4.97243 4.36102 9.70426 4.36102 15.1579C4.36102 17.4035 4.73376 19.0476 5.47923 20.0902C6.15016 18.8872 7.52929 18.2857 9.61661 18.2857ZM29.0735 18.2857C30.8626 18.2857 32.279 18.9273 33.3227 20.2105C34.4409 21.4135 35 23.0175 35 25.0226C35 27.188 34.3291 28.9123 32.9872 30.1955C31.7199 31.3985 29.9681 32 27.7316 32C25.1225 32 23.0724 30.9173 21.5815 28.7519C20.1651 26.5865 19.4569 23.4987 19.4569 19.4887C19.4569 15.8797 20.2023 12.5514 21.6933 9.50376C23.1842 6.37594 25.4207 3.24812 28.4026 0.120299C28.4771 0.0400997 28.5889 0 28.738 0C28.9617 0 29.148 0.120299 29.2971 0.360898C29.4462 0.601501 29.4462 0.802002 29.2971 0.962401C25.6443 4.97243 23.8179 9.70426 23.8179 15.1579C23.8179 17.4035 24.1906 19.0476 24.9361 20.0902C25.607 18.8872 26.9862 18.2857 29.0735 18.2857Z" fill="#EECBAB"/>
</svg>
