<svg width="41" height="14" viewBox="0 0 41 14" fill="none" xmlns="http://www.w3.org/2000/svg">
<path fill-rule="evenodd" clip-rule="evenodd" d="M4.27255 13.2036C4.84068 9.58775 3.03932 6.63089 0.25 6.60003C3.03932 6.63089 5.76132 3.72472 6.32945 0.108826C5.76132 3.72472 7.56269 6.68158 10.352 6.71244C7.56269 6.68158 4.84068 9.58775 4.27255 13.2036Z" fill="#D9D9D9"/>
<path fill-rule="evenodd" clip-rule="evenodd" d="M14.3746 13.2036C14.9427 9.58775 13.1414 6.63089 10.3521 6.60003C13.1414 6.63089 15.8634 3.72472 16.4315 0.108826C15.8634 3.72472 17.6647 6.68158 20.4541 6.71244C17.6647 6.68158 14.9427 9.58775 14.3746 13.2036Z" fill="#D9D9D9"/>
<path fill-rule="evenodd" clip-rule="evenodd" d="M24.4766 13.2036C25.0448 9.58775 23.2434 6.63089 20.4541 6.60003C23.2446 6.63089 25.9666 3.72472 26.5347 0.108826C25.9666 3.72472 27.7679 6.68158 30.5572 6.71244C27.7679 6.68158 25.0459 9.58775 24.4778 13.2036H24.4766Z" fill="#D9D9D9"/>
<path fill-rule="evenodd" clip-rule="evenodd" d="M34.5797 13.2036C35.1478 9.58775 33.3464 6.63089 30.5571 6.60003C33.3476 6.63089 36.0696 3.72472 36.6377 0.108826C36.0696 3.72472 37.871 6.68158 40.6603 6.71244C37.871 6.68158 35.1489 9.58775 34.5808 13.2036H34.5797Z" fill="#D9D9D9"/>
</svg>
