<svg width="64" height="63" viewBox="0 0 64 63" fill="none" xmlns="http://www.w3.org/2000/svg">
<path d="M48.6875 11.0625C47.9458 11.0625 47.2208 11.2824 46.6041 11.6945C45.9874 12.1065 45.5068 12.6922 45.223 13.3774C44.9391 14.0627 44.8649 14.8167 45.0096 15.5441C45.1543 16.2715 45.5114 16.9397 46.0359 17.4642C46.5603 17.9886 47.2285 18.3458 47.9559 18.4904C48.6833 18.6351 49.4374 18.5609 50.1226 18.2771C50.8078 17.9932 51.3935 17.5126 51.8055 16.8959C52.2176 16.2792 52.4375 15.5542 52.4375 14.8125C52.4375 13.8179 52.0424 12.8641 51.3392 12.1609C50.6359 11.4576 49.6821 11.0625 48.6875 11.0625ZM63.0625 18.625C63.0017 16.0322 62.5161 13.4669 61.625 11.0312C60.8304 8.94729 59.5937 7.06025 58 5.5C56.4526 3.89821 54.5611 2.6693 52.4688 1.90625C50.0396 0.988003 47.4714 0.491281 44.875 0.4375C41.5625 0.25 40.5 0.25 32 0.25C23.5 0.25 22.4375 0.25 19.125 0.4375C16.5286 0.491281 13.9604 0.988003 11.5313 1.90625C9.44274 2.67703 7.55292 3.90488 6 5.5C4.39821 7.04743 3.1693 8.93887 2.40625 11.0312C1.488 13.4604 0.991281 16.0286 0.9375 18.625C0.75 21.9375 0.75 23 0.75 31.5C0.75 40 0.75 41.0625 0.9375 44.375C0.991281 46.9714 1.488 49.5396 2.40625 51.9688C3.1693 54.0611 4.39821 55.9526 6 57.5C7.55292 59.0951 9.44274 60.323 11.5313 61.0938C13.9604 62.012 16.5286 62.5087 19.125 62.5625C22.4375 62.75 23.5 62.75 32 62.75C40.5 62.75 41.5625 62.75 44.875 62.5625C47.4714 62.5087 50.0396 62.012 52.4688 61.0938C54.5611 60.3307 56.4526 59.1018 58 57.5C59.6008 55.9456 60.8386 54.0569 61.625 51.9688C62.5161 49.5331 63.0017 46.9678 63.0625 44.375C63.0625 41.0625 63.25 40 63.25 31.5C63.25 23 63.25 21.9375 63.0625 18.625ZM57.4375 44C57.4148 45.9837 57.0555 47.9491 56.375 49.8125C55.876 51.1725 55.0746 52.4013 54.0313 53.4063C53.0177 54.4391 51.7913 55.2389 50.4375 55.75C48.5741 56.4305 46.6087 56.7898 44.625 56.8125C41.5 56.9688 40.3438 57 32.125 57C23.9063 57 22.75 57 19.625 56.8125C17.5653 56.8511 15.5144 56.5339 13.5625 55.875C12.2681 55.3377 11.098 54.54 10.125 53.5312C9.08778 52.5273 8.29639 51.2975 7.8125 49.9375C7.04955 48.0474 6.62639 46.0373 6.5625 44C6.5625 40.875 6.375 39.7188 6.375 31.5C6.375 23.2813 6.375 22.125 6.5625 19C6.57651 16.972 6.94672 14.9623 7.65625 13.0625C8.2064 11.7435 9.05083 10.5677 10.125 9.625C11.0744 8.55053 12.2478 7.69718 13.5625 7.125C15.4673 6.43764 17.475 6.07837 19.5 6.0625C22.625 6.0625 23.7813 5.875 32 5.875C40.2188 5.875 41.375 5.875 44.5 6.0625C46.4837 6.08525 48.4491 6.44452 50.3125 7.125C51.7326 7.65204 53.0072 8.5089 54.0313 9.625C55.0553 10.5849 55.8555 11.7585 56.375 13.0625C57.0695 14.9654 57.429 16.9743 57.4375 19C57.5938 22.125 57.625 23.2813 57.625 31.5C57.625 39.7188 57.5938 40.875 57.4375 44ZM32 15.4688C28.8307 15.4749 25.7343 16.4204 23.102 18.1857C20.4698 19.951 18.4199 22.4569 17.2114 25.3867C16.0028 28.3166 15.6898 31.539 16.3119 34.6467C16.934 37.7544 18.4632 40.6079 20.7065 42.8468C22.9497 45.0857 25.8063 46.6094 28.9152 47.2255C32.0241 47.8415 35.2458 47.5222 38.1733 46.3079C41.1009 45.0937 43.6027 43.0389 45.3629 40.4032C47.1231 37.7676 48.0625 34.6694 48.0625 31.5C48.0666 29.391 47.6538 27.3019 46.8476 25.353C46.0415 23.4041 44.858 21.6338 43.3652 20.1439C41.8724 18.654 40.0998 17.474 38.1494 16.6717C36.1989 15.8693 34.109 15.4605 32 15.4688ZM32 41.9063C29.9418 41.9063 27.9299 41.2959 26.2186 40.1525C24.5073 39.009 23.1735 37.3838 22.3859 35.4823C21.5983 33.5808 21.3922 31.4885 21.7937 29.4698C22.1952 27.4512 23.1863 25.597 24.6417 24.1417C26.097 22.6863 27.9512 21.6952 29.9698 21.2937C31.9885 20.8922 34.0808 21.0983 35.9823 21.8859C37.8838 22.6735 39.509 24.0073 40.6525 25.7186C41.7959 27.4299 42.4063 29.4418 42.4063 31.5C42.4063 32.8666 42.1371 34.2198 41.6141 35.4823C41.0912 36.7448 40.3246 37.892 39.3583 38.8583C38.392 39.8246 37.2449 40.5912 35.9823 41.1141C34.7198 41.6371 33.3666 41.9063 32 41.9063Z" fill="white"/>
</svg>
