<svg width="64" height="63" viewBox="0 0 64 63" fill="none" xmlns="http://www.w3.org/2000/svg">
<path d="M32 0C14.675 0 0.5 14.2003 0.5 31.6898C0.5 47.503 12.029 60.628 27.086 63V40.8615H19.085V31.6898H27.086V24.7003C27.086 16.7621 31.7795 12.3976 38.993 12.3976C42.4264 12.3976 46.0174 12.9985 46.0174 12.9985V20.8102H42.0484C38.1425 20.8102 36.914 23.2455 36.914 25.744V31.6898H45.6709L44.2534 40.8615H36.914V63C44.3367 61.823 51.0959 58.0205 55.9712 52.2788C60.8465 46.5372 63.5168 39.2347 63.4999 31.6898C63.4999 14.2003 49.3249 0 32 0Z" fill="white"/>
</svg>
